<svg width="169" height="26" viewBox="0 0 169 26" fill="none" xmlns="http://www.w3.org/2000/svg">
<path fill-rule="evenodd" clip-rule="evenodd" d="M23.658 12.1805C22.8617 12.1805 22.1188 12.5058 21.5788 13.0446C21.551 13.072 21.524 13.1025 21.4965 13.13C21.0508 13.5735 20.4381 13.8126 19.702 13.6624C19.6118 13.6421 19.5247 13.6171 19.4409 13.5874C19.3721 13.563 19.2982 13.5466 19.2411 13.5044C19.0782 13.3839 18.8301 13.145 18.7071 12.8624C18.5299 12.4555 18.5083 12.0028 18.4533 11.7687C18.222 10.7863 17.6918 9.93625 17.0305 9.23875C16.399 8.57285 15.9654 8.23566 16.3618 7.20945C16.6096 6.56757 17.1213 6.12367 17.988 5.94442C18.0195 5.93822 18.0513 5.93461 18.0819 5.92976C19.4679 5.69342 20.4956 4.50883 20.4956 3.04503C20.4956 1.40548 19.2076 0.11687 17.5675 0.11687C15.9279 0.11687 14.6398 1.40548 14.6398 3.04503C14.6398 3.56203 14.7833 4.07903 15.0479 4.51684C15.0705 4.55395 15.0935 4.59343 15.1188 4.62795C15.5442 5.21624 15.6518 6.0147 15.3042 6.74863C14.7767 7.74833 14.2463 7.65425 13.2252 7.65425C12.839 7.65425 12.4663 7.71799 12.0995 7.77281C11.2773 7.89555 10.9145 8.06273 9.59309 7.86475C8.98201 7.77315 8.07288 7.25288 7.33207 6.5123C6.50959 5.60837 5.88102 4.56286 5.85587 2.92771C5.85587 1.28816 4.56771 0 2.92771 0C1.28816 0 0 1.28816 0 2.92771C0 4.29968 0.901675 5.4255 2.1561 5.75671C2.63824 5.88384 3.14859 5.85226 3.65092 5.93416C4.73715 6.11104 5.71666 6.55708 6.55031 7.36975C7.04588 7.82346 7.42514 8.32648 7.69994 8.87337C8.04863 9.56748 8.04581 10.2837 8.0633 10.7046C8.09646 11.5055 7.86227 11.8262 7.86227 13.0171C7.86227 13.2331 7.87525 13.4462 7.89995 13.6552C8.05224 14.9418 7.76954 16.5061 6.74378 17.3737C5.92931 18.0664 4.86124 18.4214 3.7608 18.3515C3.50495 18.335 3.23308 18.2705 2.92771 18.2705C1.28816 18.2705 0 19.5585 0 21.1986C0 22.8382 1.28816 24.1263 2.92771 24.1263C4.52609 24.1263 5.78987 22.9024 5.85316 21.323C5.85451 21.2818 5.85587 21.2402 5.85587 21.1986C5.93066 20.1411 6.41585 19.0558 7.42458 18.2395C7.51347 18.1694 7.60383 18.1038 7.69498 18.0426C8.43782 17.5444 10.2209 17.5521 11.0503 17.9206C11.7149 18.2157 12.451 18.38 13.2252 18.38C13.3288 18.38 13.4319 18.3769 13.5343 18.3712C14.3641 18.3248 15.376 18.2599 15.88 19.0543C15.9199 19.1171 15.9565 19.1819 15.9891 19.2474C16.4162 20.0495 16.3635 20.9175 15.9332 21.7045C15.7084 22.1158 15.5764 22.5783 15.5764 23.0723C15.5764 24.712 16.865 26 18.5046 26C20.1443 26 21.4327 24.712 21.4327 23.0723C21.4327 21.582 20.3672 20.3799 18.9424 20.1756C17.0588 19.9054 16.5953 18.0293 17.3361 16.5759C17.88 15.509 18.8877 14.6546 19.7406 14.9113C20.1309 15.0289 20.6262 15.3725 20.8839 16.0634C20.8883 16.0763 20.8936 16.0913 20.898 16.1046C21.2977 17.24 22.3698 18.0363 23.658 18.0363C25.2976 18.0363 26.5862 16.7477 26.5862 15.1082C26.5862 13.4686 25.2976 12.1805 23.658 12.1805Z" fill="#F04C3A"/>
<path fill-rule="evenodd" clip-rule="evenodd" d="M39.2438 5.85587H45.2165C48.1447 5.85587 50.2531 7.84693 50.2531 10.8918C50.2531 13.9369 48.1447 16.0453 45.2165 16.0453H41.5859V22.0184H39.3607V5.85587H39.2438ZM44.865 14.0542C46.7392 14.0542 48.0274 12.8829 48.0274 10.8918C48.0274 9.0181 46.8561 7.84693 44.865 7.84693H41.5859V14.0542H44.865Z" fill="#F04C3A"/>
<path fill-rule="evenodd" clip-rule="evenodd" d="M61.4965 5.85587H63.8385L69.5775 22.0184H67.235L65.5953 17.3334H59.5049L57.8654 22.0184H55.5233L61.4965 5.85587ZM65.1271 15.4597L63.3702 10.3063C63.136 9.48648 62.7845 7.96425 62.7845 7.96425C62.7845 7.96425 62.4331 9.36961 62.1989 10.3063L60.442 15.4597H65.1271Z" fill="#F04C3A"/>
<path fill-rule="evenodd" clip-rule="evenodd" d="M77.4244 5.85587H82.5777C84.1 5.85587 84.9198 5.97319 85.6223 6.32413C87.1449 7.02715 88.1989 8.54939 88.1989 10.5404C88.1989 12.6488 87.0277 14.4057 85.2712 14.9913C85.2712 14.9913 85.5054 15.2255 85.7396 15.6937L89.136 21.9011H86.5594L83.1629 15.4597H79.7664V21.9011H77.5413V5.85587H77.4244ZM82.9287 13.5859C84.6856 13.5859 85.8569 12.4146 85.8569 10.6578C85.8569 9.48648 85.3885 8.54939 84.3341 8.08101C83.8658 7.84693 83.397 7.84693 82.3432 7.84693H79.6495V13.5859H82.9287Z" fill="#F04C3A"/>
<path fill-rule="evenodd" clip-rule="evenodd" d="M95.1092 7.84693V5.85587H108.46V7.84693H102.956V22.0184H100.731V7.84693H95.1092Z" fill="#F04C3A"/>
<path fill-rule="evenodd" clip-rule="evenodd" d="M116.191 5.85587H118.416L125.56 16.2794C126.145 17.2165 126.848 18.6219 126.848 18.6219C126.848 18.6219 126.731 17.2165 126.731 16.2794V5.85587H128.956V22.0184H126.731L119.587 11.5949C119.001 10.6578 118.298 9.25229 118.298 9.25229C118.298 9.25229 118.416 10.6578 118.416 11.5949V22.0184H116.191V5.85587Z" fill="#F04C3A"/>
<path fill-rule="evenodd" clip-rule="evenodd" d="M147.93 5.85587V7.84693H140.785V12.8829H146.524V14.874H140.785V20.0274H148.281V22.0184H138.443V5.85587H147.93Z" fill="#F04C3A"/>
<path fill-rule="evenodd" clip-rule="evenodd" d="M156.713 5.85587H161.866C163.389 5.85587 164.209 5.97319 164.911 6.32413C166.434 7.02715 167.488 8.54939 167.488 10.5404C167.488 12.6488 166.317 14.4057 164.56 14.9913C164.56 14.9913 164.795 15.2255 165.029 15.6937L168.425 21.9011H165.849L162.452 15.4597H159.056V21.9011H156.83V5.85587H156.713ZM162.218 13.5859C163.975 13.5859 165.146 12.4146 165.146 10.6578C165.146 9.48648 164.677 8.54939 163.623 8.08101C163.155 7.84693 162.686 7.84693 161.632 7.84693H158.939V13.5859H162.218Z" fill="#F04C3A"/>
</svg>
